<svg fill="none" height="40" viewBox="0 0 213 40" width="213" xmlns="http://www.w3.org/2000/svg"><g fill="#fff"><path d="m212.804 14.9468v-2.6026h-8.455v15.3135h8.455v-2.6025h-5.483v-4.1345h5.268v-2.6025h-5.268v-3.3695h5.483zm-26.984 3.89v-6.4926h-2.971v15.3135h2.971v-6.524l.367-.3667 5.42 6.8907h3.921l-6.8-8.2393 6.463-7.0742h-3.766zm-17.09 3.1841h-4.349l2.236-5.5126zm.917 2.3896 1.317 3.2472h3.184l-6.429-15.621h-2.236l-6.615 15.621h3.155l1.378-3.2472zm-19.14-11.4551c-1.317-.6743-2.39-.9503-3.675-.9503-4.502 0-8.147 3.5529-8.147 7.9949 0 4.5032 3.523 7.9633 8.056 7.9633 1.287 0 2.39-.2445 3.736-.8892v-3.5213c-1.195 1.1948-2.236 1.6838-3.614 1.6838-3.003 0-5.146-2.1747-5.146-5.2681 0-2.9397 2.205-5.2366 4.992-5.2366 1.41 0 2.512.4909 3.737 1.7153v-3.4918zm-24.565 9.0655h-4.349l2.236-5.5126zm.919 2.3896 1.317 3.2472h3.184l-6.431-15.621h-2.236l-6.615 15.621h3.155l1.378-3.2472zm-20.491 3.2472v-12.7109h3.431v-2.6026h-9.8326v2.6026h3.4306v12.7109zm-18.1602-5.6368h-4.3494l2.2358-5.5126zm.9483 2.3896 1.317 3.2472h3.1862l-6.4314-15.621h-2.2358l-6.6148 15.621h3.1546l1.3781-3.2472zm-27.6262.6427v-10.1064h.7965c1.9302 0 3.0935.3371 4.0734 1.2243 1.041.9188 1.6542 2.3285 1.6542 3.7974 0 1.4708-.6132 2.9396-1.6542 3.8584-.9503.8576-2.1432 1.2244-4.0734 1.2244h-.7965zm-3.0008 2.6045h4.3494c2.3285 0 3.9807-.5205 5.4515-1.7764 1.7449-1.4097 2.7878-3.614 2.7878-5.8813 0-4.5327-3.3694-7.6577-8.2078-7.6577h-4.3809z"/><path d="m14.0891 18.8368 5.1144-4.6865h-5.1144z"/><path d="m17.5197 26.0943h2.2969s1.5615.2149 3.3083-1.1337c1.7449-1.3485 2.2358-3.0619 2.2358-3.0619s.6132-1.7449.1223-3.8584z"/><path d="m0 0v40h40v-40zm26.7074 24.7161c-3.1546 4.2882-6.8001 3.7362-6.8001 3.7362h-8.0836l12.1294-12.5572c-.491-1.0114-1.9913-1.1948-1.9913-1.1948l-10.1381 10.0769v-13.2315h7.504s2.7878.0316 4.5643 1.0115c2.1431 1.1948 2.7563 2.1431 3.1861 2.8785.5796 1.1652 2.3245 5.2386-.3707 9.2804z"/></g></svg>