<svg fill="none" height="300" viewBox="0 0 448 300" width="448" xmlns="http://www.w3.org/2000/svg" xmlns:xlink="http://www.w3.org/1999/xlink"><linearGradient id="a" gradientUnits="userSpaceOnUse" x1="1.15932" x2="624.923" y1="147.277" y2="142.08"><stop offset=".33" stop-color="#0069ff"/><stop offset=".72" stop-color="#00a2ff"/><stop offset=".9" stop-color="#00bfff"/></linearGradient><linearGradient id="b" gradientUnits="userSpaceOnUse" x1="94.6012" x2="544.254" y1="430.645" y2="236.223"><stop offset=".16" stop-color="#7adcfd"/><stop offset=".3" stop-color="#8fe1fd" stop-opacity=".98"/><stop offset=".57" stop-color="#c8f0fe" stop-opacity=".91"/><stop offset=".8" stop-color="#fff" stop-opacity=".85"/></linearGradient><linearGradient id="c" gradientUnits="userSpaceOnUse" x1="561.721" x2="321.615" y1="462.749" y2="194.286"><stop offset=".22" stop-color="#0069ff"/><stop offset=".58" stop-color="#00a2ff"/><stop offset=".75" stop-color="#00bfff"/></linearGradient><linearGradient id="d" gradientUnits="userSpaceOnUse" x1="304.995" x2="439.254" y1="91.558" y2="91.558"><stop offset=".19" stop-color="#fff" stop-opacity=".7"/><stop offset=".31" stop-color="#fff" stop-opacity=".75"/><stop offset=".54" stop-color="#fff" stop-opacity=".88"/><stop offset=".72" stop-color="#fff"/></linearGradient><linearGradient id="e" gradientUnits="userSpaceOnUse" x1="17.9218" x2="224.47" y1="138.913" y2="272.735"><stop offset=".49" stop-color="#7adcfd"/><stop offset=".54" stop-color="#89e0fd"/><stop offset=".64" stop-color="#b1eafd"/><stop offset=".77" stop-color="#f2fbfe"/><stop offset=".8" stop-color="#fff"/></linearGradient><linearGradient id="f"><stop offset=".02" stop-color="#050b24"/><stop offset=".1" stop-color="#031340"/><stop offset=".21" stop-color="#021d66"/><stop offset=".31" stop-color="#002582"/><stop offset=".41" stop-color="#002a93"/><stop offset=".48" stop-color="#002c99"/><stop offset=".59" stop-color="#002d9c"/><stop offset=".69" stop-color="#0034a6"/><stop offset=".78" stop-color="#003eb7"/><stop offset=".87" stop-color="#004dd0"/><stop offset=".95" stop-color="#005fef"/><stop offset=".98" stop-color="#0069ff"/></linearGradient><linearGradient id="g" gradientUnits="userSpaceOnUse" x1="150.409" x2="100.863" xlink:href="#f" y1="312.142" y2="190.837"/><linearGradient id="h"><stop offset=".12" stop-color="#7adcfd"/><stop offset=".23" stop-color="#89e0fd"/><stop offset=".45" stop-color="#b1eafd"/><stop offset=".75" stop-color="#f2fbfe"/><stop offset=".8" stop-color="#fff"/></linearGradient><linearGradient id="i" gradientUnits="userSpaceOnUse" x1="150.81" x2="119.21" xlink:href="#h" y1="180.205" y2="153.514"/><linearGradient id="j" gradientUnits="userSpaceOnUse" x1="119.48" x2="101.125" y1="259.359" y2="197.498"><stop offset=".01" stop-color="#7adcfd"/><stop offset=".14" stop-color="#89e0fd"/><stop offset=".39" stop-color="#b1eafd"/><stop offset=".74" stop-color="#f2fbfe"/><stop offset=".8" stop-color="#fff"/></linearGradient><linearGradient id="k"><stop offset=".02" stop-color="#050b24"/><stop offset=".17" stop-color="#031340"/><stop offset=".39" stop-color="#021d66"/><stop offset=".59" stop-color="#002582"/><stop offset=".77" stop-color="#002a93"/><stop offset=".9" stop-color="#002c99"/></linearGradient><linearGradient id="l" gradientUnits="userSpaceOnUse" x1="147.294" x2="137.56" xlink:href="#k" y1="222.121" y2="198.287"/><linearGradient id="m" gradientUnits="userSpaceOnUse" x1="147.735" x2="135.801" xlink:href="#k" y1="253.797" y2="224.579"/><linearGradient id="n" gradientUnits="userSpaceOnUse" x1="144.07" x2="129.017" xlink:href="#k" y1="280.049" y2="243.183"/><linearGradient id="o" gradientUnits="userSpaceOnUse" x1="160.045" x2="127.029" xlink:href="#f" y1="167.273" y2="139.386"/><linearGradient id="p" gradientUnits="userSpaceOnUse" x1="302.744" x2="84.4162" xlink:href="#k" y1="292.155" y2="292.155"/><linearGradient id="q" gradientUnits="userSpaceOnUse" x1="389.172" x2="363.384" y1="349.998" y2="200.184"><stop offset=".19" stop-color="#050b24"/><stop offset=".28" stop-color="#040b26"/><stop offset=".34" stop-color="#040e2f"/><stop offset=".39" stop-color="#03123e"/><stop offset=".44" stop-color="#021853"/><stop offset=".48" stop-color="#01206f"/><stop offset=".52" stop-color="#002990"/><stop offset=".53" stop-color="#002c99"/><stop offset=".64" stop-color="#003bb2"/><stop offset=".88" stop-color="#0061f2"/><stop offset=".92" stop-color="#0069ff"/></linearGradient><linearGradient id="r" gradientUnits="userSpaceOnUse" x1="360.735" x2="330.255" xlink:href="#h" y1="277.361" y2="241.017"/><linearGradient id="s"><stop offset=".13" stop-color="#050b24"/><stop offset=".21" stop-color="#031340"/><stop offset=".34" stop-color="#021d66"/><stop offset=".45" stop-color="#002582"/><stop offset=".56" stop-color="#002a93"/><stop offset=".63" stop-color="#002c99"/></linearGradient><linearGradient id="t" gradientUnits="userSpaceOnUse" x1="399.135" x2="347.238" xlink:href="#s" y1="257.247" y2="213.418"/><linearGradient id="u" gradientUnits="userSpaceOnUse" x1="388.981" x2="364.004" xlink:href="#s" y1="277.793" y2="195.683"/><linearGradient id="v" gradientUnits="userSpaceOnUse" x1="257.962" x2="239.081" y1="303.162" y2="262.609"><stop offset=".12" stop-color="#7adcfd"/><stop offset=".26" stop-color="#98e4fd"/><stop offset=".62" stop-color="#e1f7fe"/><stop offset=".78" stop-color="#fff"/></linearGradient><linearGradient id="w" gradientUnits="userSpaceOnUse" x1="387.749" x2="376.792" xlink:href="#h" y1="239.587" y2="229.953"/><linearGradient id="x" gradientUnits="userSpaceOnUse" x1="388.064" x2="375.154" xlink:href="#h" y1="265.443" y2="254.084"/><path d="m594.942-30.9999c-52.96 3.3488-107.486 29.0468-135.372 79.0062-3.104 5.5586-6.038 11.5874-10.992 15.1399-4.783 3.4271-10.709 4.0226-16.327 5.0675-30.453 5.6631-57.933 28.2579-71.647 58.8983-23.522-13.108-47.653-25.98-73.642-30.6508-25.994-4.6705-54.512-.115-74.736 18.5618-20.975 19.366-29.901 50.597-32.755 80.667-36.561-4.32-77.411-7.34-106.0708 18.17-18.3516 16.331-28.0273 41.439-41.4065 62.89-13.3792 21.45-36.72196 33.675-57.9937 36.674h620.938v-344.4134z" fill="url(#a)"/><path d="m181.245 265.444h.382c14.974.026 29.33-6.514 39.911-18.253 27.858-30.907 90.088-87.417 172.641-87.417h.024c1.505 0 2.911-.81 3.774-2.174 9.883-15.693 74.482-110.3148 194.861-110.3252.703 0 1.387 0 2.09.0104v266.1338h-546.8236s51.1909-47.969 133.1406-47.969z" fill="url(#b)"/><path d="m213.013 313.414s60.546-86.906 177.251-81.243c0 0 36.712-100.049 162.21-110.895v192.138z" fill="url(#c)"/><g fill="#fff"><path d="m307.409 78.5537c-2.533-1.933-7.496-3.2443-13.204-3.2443-5.709 0-10.672 1.3113-13.205 3.2443z" opacity=".21"/><path d="m282.264 154.241s-7.911-9.482-24.781-9.158c-16.87-.324-24.782 9.158-24.782 9.158-15.554.173-22.701 12.246-22.701 12.246h94.961s-7.147-12.079-22.701-12.246z"/><path d="m368.209 204.092s-5.057-6.066-15.846-5.857c-10.79-.209-15.847 5.857-15.847 5.857-9.945.109-14.516 7.831-14.516 7.831h60.73s-4.571-7.722-14.516-7.831z" opacity=".65"/><path d="m260.261 180.603s-2.529-3.03-7.926-2.931c-5.392-.104-7.925 2.931-7.925 2.931-4.973.057-7.261 3.918-7.261 3.918h30.363s-2.283-3.861-7.26-3.918z" opacity=".21"/></g><path d="m407.16 89.3795s-7.492-8.97-23.277-11.9844c-3.51-.6687-7.421-1.05-11.756-.9665-23.848-.4545-35.033 12.9457-35.033 12.9457-21.989.2455-32.094 17.3187-32.094 17.3187h134.254s-10.105-17.0732-32.094-17.3187z" fill="url(#d)"/><path d="m167.819 140.406h-46.607v12.602l-6.343 32.486c-.606 2.659-17.4838 76.788-24.2017 106.093h-2.7657c-4.7112 0-9.3353 1.002-13.7412 2.98l-14.0029 6.28-8.1575 3.656 232.68.011-3.721-20.592c-.89-4.726-4.367-8.021-8.458-8.021h-20.433c-2.609 0-5.056 1.374-6.705 3.765l-8.241 11.931h-40.647l-2.674-12.664-1.423-7.892-.558-3.093h-.34l-6.129-29.026-.589-2.794-10.683-50.593-6.26-31.634v-.434" fill="url(#e)"/><path d="m91.0991 304.509c.4886-1.735 26.9719-118.07 26.9719-118.07h52.793l24.93 118.06z" fill="url(#g)"/><path d="m164.338 153.452h-39.824l-6.443 32.987h52.793z" fill="#fff"/><path d="m158.924 157.987h-28.883l-4.672 23.923h38.288z" fill="url(#i)"/><path d="m125.369 186.439-24.398 118.07h12.197l18.945-118.07z" fill="url(#j)"/><path d="m113.094 208.797h62.494l.759 3.604h-64.06z" fill="url(#l)"/><path d="m106.79 237.063h74.765l1.078 5.103h-76.981z" fill="url(#m)"/><path d="m98.6022 271.848h90.2998l1.679 7.958h-93.7979z" fill="url(#n)"/><path d="m164.516 144.316h-40.002v9.136h40.002z" fill="url(#o)"/><path d="m61.3223 304.504 14.0029-6.28c4.0177-1.803 8.2753-2.722 12.5721-2.722h150.7867l9.235-13.361c1.017-1.472 2.543-2.329 4.149-2.329h20.433c2.512 0 4.685 2.06 5.23 4.963l3.721 19.734h-220.1297z" fill="url(#p)"/><path d="m142.932 199.996h-3.516v4.163h3.516z" fill="#00bfff"/><path d="m149.519 199.996h-3.516v4.163h3.516z" fill="#fff"/><path d="m142.932 227.364h-3.516v4.163h3.516z" fill="#00bfff"/><path d="m149.519 227.364h-3.516v4.163h3.516z" fill="#fff"/><path d="m142.932 261.492h-3.516v4.163h3.516z" fill="#00bfff"/><path d="m149.519 261.492h-3.516v4.163h3.516z" fill="#fff"/><path d="m142.932 287.465h-3.516v4.163h3.516z" fill="#00bfff"/><path d="m149.519 287.465h-3.516v4.163h3.516z" fill="#fff"/><path d="m203 127.5c-52.265 3.74-54.829 6.774-58 68.5-3.166-61.726-5.735-64.755-58-68.5 52.265-3.74 54.829-6.774 58-68.4999 3.167 61.7259 5.735 64.7549 58 68.4999z" fill="#fff"/><path d="m536.747 296.724h-37.596v-25.527h-40.864v19.089h-10.654l-20.236-63.167h-80.774l-18.917 63.167-13.535-32.722h-43.214l-37.669 41.32-2.902 1.66-1.386.152 307.747-.006z" fill="url(#q)"/><path d="m355.308 227.119-18.886 73.754h21.107l11.531-73.754z" fill="url(#r)"/><path d="m342.994 239.239h88.511l1.634 5.815h-91.887z" fill="url(#t)"/><path d="m335.247 265.112h104.319l1.825 5.694h-107.85z" fill="url(#u)"/><path d="m257.766 257.565h13.19l-27.416 43.138-14.54-.006z" fill="url(#v)"/><path d="m342.994 239.239h88.511l-.655-1.337h-87.454z" fill="url(#w)"/><path d="m335.247 265.113h104.319l-.505-1.586h-103.34z" fill="url(#x)"/><path d="m401.589 230.555h-3.294v3.899h3.294z" fill="#00bfff"/><path d="m274.879 268.86h-3.294v3.9h3.294z" fill="#00bfff"/><path d="m421.248 230.555h-3.294v3.899h3.294z" fill="#fff"/><path d="m308.815 262.367h-3.294v3.9h3.294z" fill="#fff"/></svg>